# xmcd CD database file
#
# Track frame offsets:
#	150
#	14004
#	24606
#	34115
#	46502
#	61925
#	70548
#	90323
#	107296
#	117775
#	135913
#	153010
#	164461
#	167439
#
# Disc length: 2405 seconds
#
# Revision: 0
# Processed by: cddbd v1.5.1PL0 Copyright (c) Steve Scherf et al.
# Submitted via: CDex 1.51
#
DISCID=9409630e
DTITLE=George Cunningham - Stumblingham
DYEAR=2004
DGENRE=Blues
TTITLE0=Art Carne
TTITLE1=Missletoe
TTITLE2=The Upturned Face
TTITLE3=Westchester Furioso
TTITLE4=Debussy Fields
TTITLE5=Eddie Lang's Premature Dirt Nap
TTITLE6=Bumblenbee#
TTITLE7=Incontinentia
TTITLE8=Day Job
TTITLE9=The Last Biscuit
TTITLE10=The Mourning Tango
TTITLE11=Matilda, Our Wet Nurse
TTITLE12=The Angry Cricket
TTITLE13=Lullabi
EXTD=YEAR: 2004
EXTT0=
EXTT1=
EXTT2=
EXTT3=
EXTT4=
EXTT5=
EXTT6=
EXTT7=
EXTT8=
EXTT9=
EXTT10=
EXTT11=
EXTT12=
EXTT13=
PLAYORDER=
